var Melody1 = {
    notes: [
        { pitch: 60, quantizedStartStep: 0, quantizedEndStep: 2 },
        { pitch: 60, quantizedStartStep: 2, quantizedEndStep: 4 },
        { pitch: 67, quantizedStartStep: 4, quantizedEndStep: 6 },
        { pitch: 67, quantizedStartStep: 6, quantizedEndStep: 8 },
        { pitch: 69, quantizedStartStep: 8, quantizedEndStep: 10 },
        { pitch: 69, quantizedStartStep: 10, quantizedEndStep: 12 },
        { pitch: 67, quantizedStartStep: 12, quantizedEndStep: 16 },
        { pitch: 65, quantizedStartStep: 16, quantizedEndStep: 18 },
        { pitch: 65, quantizedStartStep: 18, quantizedEndStep: 20 },
        { pitch: 64, quantizedStartStep: 20, quantizedEndStep: 22 },
        { pitch: 64, quantizedStartStep: 22, quantizedEndStep: 24 },
        { pitch: 62, quantizedStartStep: 24, quantizedEndStep: 26 },
        { pitch: 62, quantizedStartStep: 26, quantizedEndStep: 28 },
        { pitch: 60, quantizedStartStep: 28, quantizedEndStep: 32 }
    ],
    quantizationInfo: { stepsPerQuarter: 1 },
    tempos: [{ time: 0, qpm: 120 }],
    totalQuantizedSteps: 32
};

var Melody2 = {
    notes: [
        { pitch: 64, quantizedStartStep: 0, quantizedEndStep: 2 },
        { pitch: 60, quantizedStartStep: 2, quantizedEndStep: 4 },
        { pitch: 64, quantizedStartStep: 4, quantizedEndStep: 6 },
        { pitch: 60, quantizedStartStep: 6, quantizedEndStep: 8 },
        { pitch: 65, quantizedStartStep: 8, quantizedEndStep: 10 },
        { pitch: 60, quantizedStartStep: 10, quantizedEndStep: 12 },
        { pitch: 65, quantizedStartStep: 12, quantizedEndStep: 14 },
        { pitch: 60, quantizedStartStep: 14, quantizedEndStep: 16 },
        { pitch: 67, quantizedStartStep: 16, quantizedEndStep: 18 },
        { pitch: 60, quantizedStartStep: 18, quantizedEndStep: 20 },
        { pitch: 67, quantizedStartStep: 20, quantizedEndStep: 22 },
        { pitch: 60, quantizedStartStep: 22, quantizedEndStep: 24 },
        { pitch: 62, quantizedStartStep: 24, quantizedEndStep: 26 },
        { pitch: 59, quantizedStartStep: 26, quantizedEndStep: 28 },
        { pitch: 62, quantizedStartStep: 28, quantizedEndStep: 30 },
        { pitch: 59, quantizedStartStep: 30, quantizedEndStep: 32 }
    ],
    quantizationInfo: { stepsPerQuarter: 1 },
    tempos: [{ time: 0, qpm: 120 }],
    totalQuantizedSteps: 32
};

var Melody3 = {
    notes: [
        { pitch: 57, quantizedStartStep: 0, quantizedEndStep: 4 },
        { pitch: 62, quantizedStartStep: 4, quantizedEndStep: 6 },
        { pitch: 64, quantizedStartStep: 6, quantizedEndStep: 8 },
        { pitch: 65, quantizedStartStep: 8, quantizedEndStep: 10 },
        { pitch: 62, quantizedStartStep: 10, quantizedEndStep: 12 },
        { pitch: 64, quantizedStartStep: 12, quantizedEndStep: 16 },
        { pitch: 60, quantizedStartStep: 16, quantizedEndStep: 20 },
        { pitch: 62, quantizedStartStep: 20, quantizedEndStep: 26 },
        { pitch: 57, quantizedStartStep: 26, quantizedEndStep: 28 },
        { pitch: 57, quantizedStartStep: 28, quantizedEndStep: 32 }
    ],
    quantizationInfo: { stepsPerQuarter: 1 },
    tempos: [{ time: 0, qpm: 120 }],
    totalQuantizedSteps: 32
};

var Melody4 = {
    notes: [
        { pitch: 64, quantizedStartStep: 0, quantizedEndStep: 1 },
        { pitch: 62, quantizedStartStep: 1, quantizedEndStep: 2 },
        { pitch: 64, quantizedStartStep: 2, quantizedEndStep: 3 },
        { pitch: 65, quantizedStartStep: 3, quantizedEndStep: 4 },
        { pitch: 67, quantizedStartStep: 4, quantizedEndStep: 8 },
        { pitch: 60, quantizedStartStep: 16, quantizedEndStep: 17 },
        { pitch: 59, quantizedStartStep: 17, quantizedEndStep: 18 },
        { pitch: 60, quantizedStartStep: 18, quantizedEndStep: 19 },
        { pitch: 62, quantizedStartStep: 19, quantizedEndStep: 20 },
        { pitch: 64, quantizedStartStep: 20, quantizedEndStep: 24 },

    ],
    quantizationInfo: { stepsPerQuarter: 1 },
    tempos: [{ time: 0, qpm: 120 }],
    totalQuantizedSteps: 24
};

var Melody5 = {
    notes: [
        { pitch: 48, quantizedStartStep: 0, quantizedEndStep: 2 },
        { pitch: 52, quantizedStartStep: 2, quantizedEndStep: 4 },
        { pitch: 55, quantizedStartStep: 4, quantizedEndStep: 6 },
        { pitch: 60, quantizedStartStep: 6, quantizedEndStep: 8 },
        { pitch: 64, quantizedStartStep: 8, quantizedEndStep: 10 },
        { pitch: 67, quantizedStartStep: 10, quantizedEndStep: 12 },
        { pitch: 64, quantizedStartStep: 12, quantizedEndStep: 14 },
        { pitch: 60, quantizedStartStep: 14, quantizedEndStep: 16 },
        { pitch: 57, quantizedStartStep: 16, quantizedEndStep: 18 },
        { pitch: 60, quantizedStartStep: 18, quantizedEndStep: 20 },
        { pitch: 64, quantizedStartStep: 20, quantizedEndStep: 22 },
        { pitch: 69, quantizedStartStep: 22, quantizedEndStep: 24 },
        { pitch: 72, quantizedStartStep: 24, quantizedEndStep: 26 },
        { pitch: 76, quantizedStartStep: 26, quantizedEndStep: 28 },
        { pitch: 72, quantizedStartStep: 28, quantizedEndStep: 30 },
        { pitch: 69, quantizedStartStep: 30, quantizedEndStep: 32 }

    ],
    quantizationInfo: { stepsPerQuarter: 1 },
    tempos: [{ time: 0, qpm: 120 }],
    totalQuantizedSteps: 32
};



var Drumkit1 = {
    notes: [
        { pitch: 36, quantizedStartStep: 0, quantizedEndStep: 1, isDrum: true },
        { pitch: 38, quantizedStartStep: 0, quantizedEndStep: 1, isDrum: true },
        { pitch: 42, quantizedStartStep: 0, quantizedEndStep: 1, isDrum: true },
        { pitch: 46, quantizedStartStep: 0, quantizedEndStep: 1, isDrum: true },
        { pitch: 42, quantizedStartStep: 2, quantizedEndStep: 3, isDrum: true },
        { pitch: 42, quantizedStartStep: 3, quantizedEndStep: 4, isDrum: true },
        { pitch: 42, quantizedStartStep: 4, quantizedEndStep: 5, isDrum: true },
        { pitch: 50, quantizedStartStep: 4, quantizedEndStep: 5, isDrum: true },
        { pitch: 36, quantizedStartStep: 6, quantizedEndStep: 7, isDrum: true },
        { pitch: 38, quantizedStartStep: 6, quantizedEndStep: 7, isDrum: true },
        { pitch: 42, quantizedStartStep: 6, quantizedEndStep: 7, isDrum: true },
        { pitch: 45, quantizedStartStep: 6, quantizedEndStep: 7, isDrum: true },
        { pitch: 36, quantizedStartStep: 8, quantizedEndStep: 9, isDrum: true },
        { pitch: 42, quantizedStartStep: 8, quantizedEndStep: 9, isDrum: true },
        { pitch: 46, quantizedStartStep: 8, quantizedEndStep: 9, isDrum: true },
        { pitch: 42, quantizedStartStep: 10, quantizedEndStep: 11, isDrum: true },
        { pitch: 48, quantizedStartStep: 10, quantizedEndStep: 11, isDrum: true },
        { pitch: 50, quantizedStartStep: 10, quantizedEndStep: 11, isDrum: true },
    ],
    quantizationInfo: { stepsPerQuarter: 4 },
    tempos: [{ time: 0, qpm: 120 }],
    totalQuantizedSteps: 11
};

var Drumkit2 = { "ticksPerQuarter": 120, "timeSignatures": [{ "time": 0, "numerator": 4, "denominator": 4 }], "tempos": [{ "time": 0, "qpm": 100 }], "notes": [{ "pitch": 35, "velocity": 128, "startTime": 0, "endTime": 0.049999999999999996, "instrument": 0, "program": -1, "isDrum": true, "quantizedStartStep": "0", "quantizedEndStep": "1" }, { "pitch": 42, "velocity": 96, "startTime": 0, "endTime": 0.049999999999999996, "instrument": 0, "program": -1, "isDrum": true, "quantizedStartStep": "0", "quantizedEndStep": "1" }, { "pitch": 42, "velocity": 39, "startTime": 0.15, "endTime": 0.19999999999999998, "instrument": 0, "program": -1, "isDrum": true, "quantizedStartStep": "1", "quantizedEndStep": "2" }, { "pitch": 42, "velocity": 71, "startTime": 0.3, "endTime": 0.35, "instrument": 0, "program": -1, "isDrum": true, "quantizedStartStep": "2", "quantizedEndStep": "3" }, { "pitch": 42, "velocity": 39, "startTime": 0.44999999999999996, "endTime": 0.49999999999999994, "instrument": 0, "program": -1, "isDrum": true, "quantizedStartStep": "3", "quantizedEndStep": "4" }, { "pitch": 75, "velocity": 105, "startTime": 0.6, "endTime": 0.65, "instrument": 0, "program": -1, "isDrum": true, "quantizedStartStep": "4", "quantizedEndStep": "5" }, { "pitch": 37, "velocity": 128, "startTime": 0.6, "endTime": 0.65, "instrument": 0, "program": -1, "isDrum": true, "quantizedStartStep": "4", "quantizedEndStep": "5" }, { "pitch": 42, "velocity": 87, "startTime": 0.6, "endTime": 0.65, "instrument": 0, "program": -1, "isDrum": true, "quantizedStartStep": "4", "quantizedEndStep": "5" }, { "pitch": 42, "velocity": 39, "startTime": 0.75, "endTime": 0.8, "instrument": 0, "program": -1, "isDrum": true, "quantizedStartStep": "5", "quantizedEndStep": "6" }, { "pitch": 35, "velocity": 95, "startTime": 0.9, "endTime": 0.9500000000000001, "instrument": 0, "program": -1, "isDrum": true, "quantizedStartStep": "6", "quantizedEndStep": "7" }, { "pitch": 42, "velocity": 71, "startTime": 0.9, "endTime": 0.9500000000000001, "instrument": 0, "program": -1, "isDrum": true, "quantizedStartStep": "6", "quantizedEndStep": "7" }, { "pitch": 42, "velocity": 39, "startTime": 1.05, "endTime": 1.1, "instrument": 0, "program": -1, "isDrum": true, "quantizedStartStep": "7", "quantizedEndStep": "8" }, { "pitch": 35, "velocity": 128, "startTime": 1.2000000000000002, "endTime": 1.2500000000000002, "instrument": 0, "program": -1, "isDrum": true, "quantizedStartStep": "8", "quantizedEndStep": "9" }, { "pitch": 42, "velocity": 103, "startTime": 1.2000000000000002, "endTime": 1.2500000000000002, "instrument": 0, "program": -1, "isDrum": true, "quantizedStartStep": "8", "quantizedEndStep": "9" }, { "pitch": 42, "velocity": 39, "startTime": 1.3500000000000003, "endTime": 1.4000000000000004, "instrument": 0, "program": -1, "isDrum": true, "quantizedStartStep": "9", "quantizedEndStep": "10" }, { "pitch": 42, "velocity": 71, "startTime": 1.5000000000000004, "endTime": 1.5500000000000005, "instrument": 0, "program": -1, "isDrum": true, "quantizedStartStep": "10", "quantizedEndStep": "11" }, { "pitch": 62, "velocity": 64, "startTime": 1.6500000000000006, "endTime": 1.7000000000000006, "instrument": 0, "program": -1, "isDrum": true, "quantizedStartStep": "11", "quantizedEndStep": "12" }, { "pitch": 42, "velocity": 39, "startTime": 1.6500000000000006, "endTime": 1.7000000000000006, "instrument": 0, "program": -1, "isDrum": true, "quantizedStartStep": "11", "quantizedEndStep": "12" }, { "pitch": 62, "velocity": 128, "startTime": 1.8000000000000007, "endTime": 1.8500000000000008, "instrument": 0, "program": -1, "isDrum": true, "quantizedStartStep": "12", "quantizedEndStep": "13" }, { "pitch": 37, "velocity": 128, "startTime": 1.8000000000000007, "endTime": 1.8500000000000008, "instrument": 0, "program": -1, "isDrum": true, "quantizedStartStep": "12", "quantizedEndStep": "13" }, { "pitch": 42, "velocity": 87, "startTime": 1.8000000000000007, "endTime": 1.8500000000000008, "instrument": 0, "program": -1, "isDrum": true, "quantizedStartStep": "12", "quantizedEndStep": "13" }, { "pitch": 42, "velocity": 39, "startTime": 1.9500000000000008, "endTime": 2.000000000000001, "instrument": 0, "program": -1, "isDrum": true, "quantizedStartStep": "13", "quantizedEndStep": "14" }, { "pitch": 42, "velocity": 71, "startTime": 2.100000000000001, "endTime": 2.150000000000001, "instrument": 0, "program": -1, "isDrum": true, "quantizedStartStep": "14", "quantizedEndStep": "15" }, { "pitch": 46, "velocity": 55, "startTime": 2.250000000000001, "endTime": 2.3000000000000007, "instrument": 0, "program": -1, "isDrum": true, "quantizedStartStep": "15", "quantizedEndStep": "16" }], "totalTime": 38.600000000000115, "sourceInfo": { "encodingType": "MIDI", "parser": "TONEJS_MIDI_CONVERT" }, "quantizationInfo": { "stepsPerQuarter": 4 }, "totalQuantizedSteps": "16" }

var Drumkit3 = { "ticksPerQuarter": 120, "timeSignatures": [{ "time": 0, "numerator": 4, "denominator": 4 }], "tempos": [{ "time": 0, "qpm": 100 }], "notes": [{ "pitch": 36, "velocity": 128, "startTime": 0, "endTime": 0.049999999999999996, "instrument": 0, "program": -1, "isDrum": true, "quantizedStartStep": "0", "quantizedEndStep": "1" }, { "pitch": 42, "velocity": 84, "startTime": 0, "endTime": 0.049999999999999996, "instrument": 0, "program": -1, "isDrum": true, "quantizedStartStep": "0", "quantizedEndStep": "1" }, { "pitch": 42, "velocity": 66, "startTime": 0.19999999999999998, "endTime": 0.24999999999999997, "instrument": 0, "program": -1, "isDrum": true, "quantizedStartStep": "1", "quantizedEndStep": "2" }, { "pitch": 44, "velocity": 123, "startTime": 0.3, "endTime": 0.35, "instrument": 0, "program": -1, "isDrum": true, "quantizedStartStep": "2", "quantizedEndStep": "3" }, { "pitch": 36, "velocity": 123, "startTime": 0.3, "endTime": 0.35, "instrument": 0, "program": -1, "isDrum": true, "quantizedStartStep": "2", "quantizedEndStep": "3" }, { "pitch": 42, "velocity": 64, "startTime": 0.5, "endTime": 0.55, "instrument": 0, "program": -1, "isDrum": true, "quantizedStartStep": "3", "quantizedEndStep": "4" }, { "pitch": 42, "velocity": 73, "startTime": 0.6000000000000001, "endTime": 0.6500000000000001, "instrument": 0, "program": -1, "isDrum": true, "quantizedStartStep": "4", "quantizedEndStep": "5" }, { "pitch": 38, "velocity": 128, "startTime": 0.6000000000000001, "endTime": 0.6500000000000001, "instrument": 0, "program": -1, "isDrum": true, "quantizedStartStep": "4", "quantizedEndStep": "5" }, { "pitch": 42, "velocity": 78, "startTime": 0.8000000000000002, "endTime": 0.8500000000000002, "instrument": 0, "program": -1, "isDrum": true, "quantizedStartStep": "5", "quantizedEndStep": "6" }, { "pitch": 46, "velocity": 128, "startTime": 0.9000000000000002, "endTime": 0.9500000000000003, "instrument": 0, "program": -1, "isDrum": true, "quantizedStartStep": "6", "quantizedEndStep": "7" }, { "pitch": 44, "velocity": 84, "startTime": 1.2000000000000002, "endTime": 1.2500000000000002, "instrument": 0, "program": -1, "isDrum": true, "quantizedStartStep": "8", "quantizedEndStep": "9" }, { "pitch": 36, "velocity": 104, "startTime": 1.2000000000000002, "endTime": 1.2500000000000002, "instrument": 0, "program": -1, "isDrum": true, "quantizedStartStep": "8", "quantizedEndStep": "9" }, { "pitch": 42, "velocity": 61, "startTime": 1.4000000000000001, "endTime": 1.4500000000000002, "instrument": 0, "program": -1, "isDrum": true, "quantizedStartStep": "9", "quantizedEndStep": "10" }, { "pitch": 44, "velocity": 123, "startTime": 1.5000000000000002, "endTime": 1.5500000000000003, "instrument": 0, "program": -1, "isDrum": true, "quantizedStartStep": "10", "quantizedEndStep": "11" }, { "pitch": 36, "velocity": 123, "startTime": 1.5000000000000002, "endTime": 1.5500000000000003, "instrument": 0, "program": -1, "isDrum": true, "quantizedStartStep": "10", "quantizedEndStep": "11" }, { "pitch": 42, "velocity": 55, "startTime": 1.7000000000000002, "endTime": 1.7500000000000002, "instrument": 0, "program": -1, "isDrum": true, "quantizedStartStep": "11", "quantizedEndStep": "12" }, { "pitch": 42, "velocity": 74, "startTime": 1.8000000000000003, "endTime": 1.8500000000000003, "instrument": 0, "program": -1, "isDrum": true, "quantizedStartStep": "12", "quantizedEndStep": "13" }, { "pitch": 38, "velocity": 128, "startTime": 1.8000000000000003, "endTime": 1.8500000000000003, "instrument": 0, "program": -1, "isDrum": true, "quantizedStartStep": "12", "quantizedEndStep": "13" }, { "pitch": 42, "velocity": 71, "startTime": 2.0000000000000004, "endTime": 2.0500000000000003, "instrument": 0, "program": -1, "isDrum": true, "quantizedStartStep": "13", "quantizedEndStep": "14" }, { "pitch": 44, "velocity": 123, "startTime": 2.1, "endTime": 2.15, "instrument": 0, "program": -1, "isDrum": true, "quantizedStartStep": "14", "quantizedEndStep": "15" }, { "pitch": 42, "velocity": 42, "startTime": 2.3, "endTime": 2.3499999999999996, "instrument": 0, "program": -1, "isDrum": true, "quantizedStartStep": "15", "quantizedEndStep": "16" }, { "pitch": 38, "velocity": 35, "startTime": 2.3, "endTime": 2.3499999999999996, "instrument": 0, "program": -1, "isDrum": true, "quantizedStartStep": "15", "quantizedEndStep": "16" }], "totalTime": 38.449999999999896, "sourceInfo": { "encodingType": "MIDI", "parser": "TONEJS_MIDI_CONVERT" }, "quantizationInfo": { "stepsPerQuarter": 4 }, "totalQuantizedSteps": "16" }

var Drumkit4 = { "ticksPerQuarter": 120, "timeSignatures": [{ "time": 0, "numerator": 4, "denominator": 4 }], "tempos": [{ "time": 0, "qpm": 100 }], "notes": [{ "pitch": 70, "velocity": 60, "startTime": 0, "endTime": 0.049999999999999996, "instrument": 0, "program": -1, "isDrum": true, "quantizedStartStep": "0", "quantizedEndStep": "1" }, { "pitch": 36, "velocity": 87, "startTime": 0, "endTime": 0.049999999999999996, "instrument": 0, "program": -1, "isDrum": true, "quantizedStartStep": "0", "quantizedEndStep": "1" }, { "pitch": 42, "velocity": 41, "startTime": 0, "endTime": 0.049999999999999996, "instrument": 0, "program": -1, "isDrum": true, "quantizedStartStep": "0", "quantizedEndStep": "1" }, { "pitch": 54, "velocity": 48, "startTime": 0, "endTime": 0.049999999999999996, "instrument": 0, "program": -1, "isDrum": true, "quantizedStartStep": "0", "quantizedEndStep": "1" }, { "pitch": 70, "velocity": 41, "startTime": 0.15, "endTime": 0.19999999999999998, "instrument": 0, "program": -1, "isDrum": true, "quantizedStartStep": "1", "quantizedEndStep": "2" }, { "pitch": 69, "velocity": 52, "startTime": 0.3, "endTime": 0.35, "instrument": 0, "program": -1, "isDrum": true, "quantizedStartStep": "2", "quantizedEndStep": "3" }, { "pitch": 54, "velocity": 42, "startTime": 0.3, "endTime": 0.35, "instrument": 0, "program": -1, "isDrum": true, "quantizedStartStep": "2", "quantizedEndStep": "3" }, { "pitch": 70, "velocity": 50, "startTime": 0.6, "endTime": 0.65, "instrument": 0, "program": -1, "isDrum": true, "quantizedStartStep": "4", "quantizedEndStep": "5" }, { "pitch": 40, "velocity": 101, "startTime": 0.6, "endTime": 0.65, "instrument": 0, "program": -1, "isDrum": true, "quantizedStartStep": "4", "quantizedEndStep": "5" }, { "pitch": 54, "velocity": 45, "startTime": 0.6, "endTime": 0.65, "instrument": 0, "program": -1, "isDrum": true, "quantizedStartStep": "4", "quantizedEndStep": "5" }, { "pitch": 70, "velocity": 44, "startTime": 0.75, "endTime": 0.8, "instrument": 0, "program": -1, "isDrum": true, "quantizedStartStep": "5", "quantizedEndStep": "6" }, { "pitch": 54, "velocity": 49, "startTime": 0.75, "endTime": 0.8, "instrument": 0, "program": -1, "isDrum": true, "quantizedStartStep": "5", "quantizedEndStep": "6" }, { "pitch": 69, "velocity": 47, "startTime": 0.9, "endTime": 0.9500000000000001, "instrument": 0, "program": -1, "isDrum": true, "quantizedStartStep": "6", "quantizedEndStep": "7" }, { "pitch": 54, "velocity": 47, "startTime": 0.9, "endTime": 0.9500000000000001, "instrument": 0, "program": -1, "isDrum": true, "quantizedStartStep": "6", "quantizedEndStep": "7" }, { "pitch": 36, "velocity": 64, "startTime": 1.05, "endTime": 1.1, "instrument": 0, "program": -1, "isDrum": true, "quantizedStartStep": "7", "quantizedEndStep": "8" }, { "pitch": 70, "velocity": 48, "startTime": 1.2000000000000002, "endTime": 1.2500000000000002, "instrument": 0, "program": -1, "isDrum": true, "quantizedStartStep": "8", "quantizedEndStep": "9" }, { "pitch": 54, "velocity": 44, "startTime": 1.2000000000000002, "endTime": 1.2500000000000002, "instrument": 0, "program": -1, "isDrum": true, "quantizedStartStep": "8", "quantizedEndStep": "9" }, { "pitch": 36, "velocity": 77, "startTime": 1.2000000000000002, "endTime": 1.2500000000000002, "instrument": 0, "program": -1, "isDrum": true, "quantizedStartStep": "8", "quantizedEndStep": "9" }, { "pitch": 70, "velocity": 38, "startTime": 1.3500000000000003, "endTime": 1.4000000000000004, "instrument": 0, "program": -1, "isDrum": true, "quantizedStartStep": "9", "quantizedEndStep": "10" }, { "pitch": 69, "velocity": 45, "startTime": 1.5000000000000004, "endTime": 1.5500000000000005, "instrument": 0, "program": -1, "isDrum": true, "quantizedStartStep": "10", "quantizedEndStep": "11" }, { "pitch": 46, "velocity": 63, "startTime": 1.5000000000000004, "endTime": 1.5500000000000005, "instrument": 0, "program": -1, "isDrum": true, "quantizedStartStep": "10", "quantizedEndStep": "11" }, { "pitch": 54, "velocity": 38, "startTime": 1.5000000000000004, "endTime": 1.5500000000000005, "instrument": 0, "program": -1, "isDrum": true, "quantizedStartStep": "10", "quantizedEndStep": "11" }, { "pitch": 36, "velocity": 89, "startTime": 1.5000000000000004, "endTime": 1.5500000000000005, "instrument": 0, "program": -1, "isDrum": true, "quantizedStartStep": "10", "quantizedEndStep": "11" }, { "pitch": 70, "velocity": 47, "startTime": 1.8000000000000005, "endTime": 1.8500000000000005, "instrument": 0, "program": -1, "isDrum": true, "quantizedStartStep": "12", "quantizedEndStep": "13" }, { "pitch": 42, "velocity": 42, "startTime": 1.8000000000000005, "endTime": 1.8500000000000005, "instrument": 0, "program": -1, "isDrum": true, "quantizedStartStep": "12", "quantizedEndStep": "13" }, { "pitch": 54, "velocity": 48, "startTime": 1.8000000000000005, "endTime": 1.8500000000000005, "instrument": 0, "program": -1, "isDrum": true, "quantizedStartStep": "12", "quantizedEndStep": "13" }, { "pitch": 40, "velocity": 99, "startTime": 1.8000000000000005, "endTime": 1.8500000000000005, "instrument": 0, "program": -1, "isDrum": true, "quantizedStartStep": "12", "quantizedEndStep": "13" }, { "pitch": 70, "velocity": 42, "startTime": 1.9500000000000006, "endTime": 2.0000000000000004, "instrument": 0, "program": -1, "isDrum": true, "quantizedStartStep": "13", "quantizedEndStep": "14" }, { "pitch": 54, "velocity": 58, "startTime": 1.9500000000000006, "endTime": 2.0000000000000004, "instrument": 0, "program": -1, "isDrum": true, "quantizedStartStep": "13", "quantizedEndStep": "14" }, { "pitch": 69, "velocity": 47, "startTime": 2.1000000000000005, "endTime": 2.1500000000000004, "instrument": 0, "program": -1, "isDrum": true, "quantizedStartStep": "14", "quantizedEndStep": "15" }, { "pitch": 54, "velocity": 49, "startTime": 2.1000000000000005, "endTime": 2.1500000000000004, "instrument": 0, "program": -1, "isDrum": true, "quantizedStartStep": "14", "quantizedEndStep": "15" }, { "pitch": 36, "velocity": 76, "startTime": 2.1000000000000005, "endTime": 2.1500000000000004, "instrument": 0, "program": -1, "isDrum": true, "quantizedStartStep": "14", "quantizedEndStep": "15" }], "totalTime": 38.600000000000094, "sourceInfo": { "encodingType": "MIDI", "parser": "TONEJS_MIDI_CONVERT" }, "quantizationInfo": { "stepsPerQuarter": 4 }, "totalQuantizedSteps": "16" }

var Drumkit5 = { "ticksPerQuarter": 120, "timeSignatures": [{ "time": 0, "numerator": 3, "denominator": 4 }], "tempos": [{ "time": 0, "qpm": 100 }], "notes": [{ "pitch": 41, "velocity": 106, "startTime": 0, "endTime": 0.049999999999999996, "instrument": 0, "program": -1, "isDrum": true, "quantizedStartStep": "0", "quantizedEndStep": "1" }, { "pitch": 39, "velocity": 107, "startTime": 0, "endTime": 0.049999999999999996, "instrument": 0, "program": -1, "isDrum": true, "quantizedStartStep": "0", "quantizedEndStep": "1" }, { "pitch": 57, "velocity": 106, "startTime": 0, "endTime": 0.049999999999999996, "instrument": 0, "program": -1, "isDrum": true, "quantizedStartStep": "0", "quantizedEndStep": "1" }, { "pitch": 63, "velocity": 90, "startTime": 0.3, "endTime": 0.35, "instrument": 0, "program": -1, "isDrum": true, "quantizedStartStep": "2", "quantizedEndStep": "3" }, { "pitch": 63, "velocity": 87, "startTime": 0.44999999999999996, "endTime": 0.49999999999999994, "instrument": 0, "program": -1, "isDrum": true, "quantizedStartStep": "3", "quantizedEndStep": "4" }, { "pitch": 61, "velocity": 123, "startTime": 0.6, "endTime": 0.65, "instrument": 0, "program": -1, "isDrum": true, "quantizedStartStep": "4", "quantizedEndStep": "5" }, { "pitch": 63, "velocity": 117, "startTime": 0.9, "endTime": 0.9500000000000001, "instrument": 0, "program": -1, "isDrum": true, "quantizedStartStep": "6", "quantizedEndStep": "7" }, { "pitch": 63, "velocity": 90, "startTime": 1.05, "endTime": 1.1, "instrument": 0, "program": -1, "isDrum": true, "quantizedStartStep": "7", "quantizedEndStep": "8" }, { "pitch": 39, "velocity": 93, "startTime": 1.2000000000000002, "endTime": 1.2500000000000002, "instrument": 0, "program": -1, "isDrum": true, "quantizedStartStep": "8", "quantizedEndStep": "9" }, { "pitch": 60, "velocity": 97, "startTime": 1.2000000000000002, "endTime": 1.2500000000000002, "instrument": 0, "program": -1, "isDrum": true, "quantizedStartStep": "8", "quantizedEndStep": "9" }, { "pitch": 61, "velocity": 128, "startTime": 1.5000000000000002, "endTime": 1.5500000000000003, "instrument": 0, "program": -1, "isDrum": true, "quantizedStartStep": "10", "quantizedEndStep": "11" }, { "pitch": 52, "velocity": 92, "startTime": 1.8000000000000003, "endTime": 1.8500000000000003, "instrument": 0, "program": -1, "isDrum": true, "quantizedStartStep": "12", "quantizedEndStep": "13" }, { "pitch": 39, "velocity": 117, "startTime": 1.8000000000000003, "endTime": 1.8500000000000003, "instrument": 0, "program": -1, "isDrum": true, "quantizedStartStep": "12", "quantizedEndStep": "13" }, { "pitch": 41, "velocity": 99, "startTime": 1.8000000000000003, "endTime": 1.8500000000000003, "instrument": 0, "program": -1, "isDrum": true, "quantizedStartStep": "12", "quantizedEndStep": "13" }, { "pitch": 63, "velocity": 103, "startTime": 2.2500000000000004, "endTime": 2.3000000000000003, "instrument": 0, "program": -1, "isDrum": true, "quantizedStartStep": "15", "quantizedEndStep": "16" }], "totalTime": 28.700000000000145, "sourceInfo": { "encodingType": "MIDI", "parser": "TONEJS_MIDI_CONVERT" }, "quantizationInfo": { "stepsPerQuarter": 4 }, "totalQuantizedSteps": "16" }